# xmcd
#
# Track frame offsets:
#	150
#	10785
#	21325
#	32932
#	44032
#	60922
#	73000
#	83697
#	95180
#	106422
#	119602
#	131292
#
# Disc length: 1892 seconds
#
# Revision: 1
# Processed by: cddbd v1.5.2PL0 Copyright (c) Steve Scherf et al.
# Submitted via: audiograbber 1.83.01
#
DISCID=a207620c
DTITLE=Little Jimmy Dickens - The Best Of The Best Of Little Jimmy Dickens
DYEAR=2008
DGENRE=Country
TTITLE0=May The Bird Of Paradise Fly Up Your Nose
TTITLE1=Hillbilly Fever
TTITLE2=Take An Old Cold Tater (And Wait)
TTITLE3=I'm Little But I'm Loud
TTITLE4=We Could
TTITLE5=Life Turned Her That Way
TTITLE6=A-Sleeping At The Foot Of The Bed
TTITLE7=Country Boy
TTITLE8=Out Behind The Barn
TTITLE9=Another Bridge To Burn
TTITLE10=My Heart's Bouquet
TTITLE11=This World Is Not My Home
EXTD=
EXTT0=
EXTT1=
EXTT2=
EXTT3=
EXTT4=
EXTT5=
EXTT6=
EXTT7=
EXTT8=
EXTT9=
EXTT10=
EXTT11=
PLAYORDER=
